<?xml version="1.0" encoding="utf-8"?>
<!-- Generator: Adobe Illustrator 16.0.0, SVG Export Plug-In . SVG Version: 6.00 Build 0)  -->
<!DOCTYPE svg PUBLIC "-//W3C//DTD SVG 1.1//EN" "http://www.w3.org/Graphics/SVG/1.1/DTD/svg11.dtd">
<svg version="1.1" id="Ebene_2" xmlns="http://www.w3.org/2000/svg" xmlns:xlink="http://www.w3.org/1999/xlink" x="0px" y="0px"
	 width="208px" height="61.077px" viewBox="0 0 208 61.077" enable-background="new 0 0 208 61.077" xml:space="preserve">
<rect x="0" y="0.077" fill="#FFFFFF" width="208.012" height="60.992"/>
<g>
	<g>
		<defs>
			<polygon id="SVGID_1_" points="88.72,13.274 60.963,41.211 37.252,34.255 39.958,-0.176 88.322,-0.443 			"/>
		</defs>
		<clipPath id="SVGID_2_">
			<use xlink:href="#SVGID_1_"  overflow="visible"/>
		</clipPath>
		<g clip-path="url(#SVGID_2_)">
			<defs>
				<path id="SVGID_3_" d="M62.649,29.437V34.1H40.141v-2.318l9.824-13.008c0.858-1.104,1.641-2.121,2.334-3.026
					c0.281-0.4,0.578-0.796,0.89-1.195c0.265-0.354,0.505-0.66,0.714-0.971c0.244-0.354,0.455-0.618,0.619-0.837
					c0.064-0.089,0.123-0.178,0.152-0.224c0.326-0.563,0.488-1.148,0.488-1.768c0-0.519-0.096-0.971-0.289-1.413
					c-0.191-0.442-0.447-0.842-0.794-1.152c-0.354-0.353-0.751-0.615-1.228-0.84c-0.437-0.177-0.9-0.265-1.407-0.265
					c-0.509,0-0.976,0.088-1.417,0.27c-0.461,0.221-0.855,0.482-1.189,0.791c-0.332,0.354-0.594,0.755-0.793,1.197
					c-0.195,0.442-0.286,0.891-0.286,1.413v1.597h-7.532v-1.597c0-1.458,0.312-2.875,0.925-4.2c0.601-1.277,1.429-2.425,2.454-3.371
					c1.019-0.972,2.227-1.72,3.573-2.278c1.354-0.551,2.829-0.833,4.37-0.833c1.537,0,3.01,0.282,4.361,0.833
					c1.361,0.559,2.553,1.321,3.572,2.278c0.955,0.884,1.736,1.934,2.324,3.107V0.443H83.46V7.79H68.955v4.202h4.598
					c4.433,0,10.908,3.062,10.941,11.174c0.057,5.802-4.047,11.795-11.87,11.795C68.16,34.961,64.545,32.952,62.649,29.437z
					 M61.734,27.123c-0.283-0.977-0.458-2.038-0.506-3.164h7.434c0.047,2.187,2.08,3.381,3.76,3.335
					c2.232,0,3.855-1.854,3.855-3.864c0-1.942-1.271-4.392-4.505-4.392h-9.965v-3.644c-0.428,0.801-1.002,1.657-1.682,2.496
					l-7.229,9.233H61.734z"/>
			</defs>
			<clipPath id="SVGID_4_">
				<use xlink:href="#SVGID_3_"  overflow="visible"/>
			</clipPath>
			<path clip-path="url(#SVGID_4_)" fill="#3AC8E9" d="M73.179,8.233c0.432,8.73-9.152,19.727-19.493,20.256
				c-9.336,0.526-18.495-8.523-17.964-20.211c0.54-11.702,8.552-21.087,20.122-21.404C66.129-13.405,72.664-2.629,73.179,8.233z"/>
			<path clip-path="url(#SVGID_4_)" fill="#87E6DF" d="M89.914,21.07C89.208,32.952,74.88,42.049,67.304,40.079
				C56.68,37.342,53.395,27.032,56.547,15.571C59.7,4.067,70.323-5.48,77.746-3.668C84.966-1.897,90.576,9.971,89.914,21.07z"/>
			<linearGradient id="SVGID_5_" gradientUnits="userSpaceOnUse" x1="22.6235" y1="16.7773" x2="101.6851" y2="16.7773">
				<stop  offset="0" style="stop-color:#8DFFFF"/>
				<stop  offset="1" style="stop-color:#41B8E0"/>
			</linearGradient>
			<polygon clip-path="url(#SVGID_4_)" fill-rule="evenodd" clip-rule="evenodd" fill="url(#SVGID_5_)" points="62.167,56.327 
				22.624,16.74 62.167,-22.771 101.685,16.74 			"/>
		</g>
	</g>
	<g id="Compart_2_">
		<rect x="182.008" y="32.78" fill="#121212" width="8.986" height="17.169"/>
		<polygon fill="#121212" points="191.023,23.667 191.023,32.78 200.025,32.78 200.025,49.949 191.023,49.949 191.023,59.063 
			208.012,59.063 208.012,23.667 		"/>
		<rect x="174.033" y="58.032" fill="#E60000" width="33.979" height="3.036"/>
		<rect x="174.033" y="21.629" fill="#E60000" width="33.979" height="3.029"/>
		<g>
			<defs>
				<rect id="SVGID_6_" x="73.802" y="21.629" width="134.209" height="39.439"/>
			</defs>
			<clipPath id="SVGID_7_">
				<use xlink:href="#SVGID_6_"  overflow="visible"/>
			</clipPath>
			<path clip-path="url(#SVGID_7_)" fill="#121212" d="M83.398,40.838c-0.295-0.256-0.647-0.471-1.023-0.638
				c-0.381-0.156-0.771-0.271-1.182-0.271c-0.4,0-0.795,0.114-1.147,0.241c-0.377,0.155-0.696,0.382-0.954,0.668
				c-0.283,0.252-0.475,0.614-0.635,0.982c-0.129,0.381-0.212,0.802-0.212,1.275c0,0.927,0.271,1.693,0.819,2.292
				c0.57,0.552,1.302,0.887,2.196,0.887c0.38,0,0.761-0.084,1.142-0.25c0.389-0.126,0.721-0.378,0.996-0.637v3.861
				c-0.463,0.252-0.948,0.437-1.459,0.578c-0.512,0.062-1.03,0.124-1.55,0.124c-0.907,0-1.745-0.123-2.538-0.513
				c-0.796-0.312-1.494-0.763-2.1-1.404c-0.609-0.562-1.08-1.264-1.436-2.093c-0.348-0.807-0.514-1.697-0.514-2.717
				s0.166-2.001,0.514-2.854c0.355-0.832,0.829-1.596,1.436-2.206c0.623-0.638,1.341-1.096,2.166-1.432
				c0.835-0.352,1.717-0.509,2.654-0.509c0.498,0,1.003,0.031,1.484,0.157c0.452,0.13,0.926,0.352,1.342,0.608V40.838z
				 M92.513,36.22c0.975,0,1.882,0.127,2.762,0.412c0.891,0.353,1.654,0.765,2.357,1.374c0.639,0.538,1.209,1.303,1.592,2.164
				c0.383,0.847,0.574,1.814,0.574,2.925c0,1.098-0.191,2.08-0.574,2.929c-0.383,0.868-0.953,1.571-1.592,2.132
				c-0.703,0.625-1.467,1.057-2.357,1.344c-0.88,0.327-1.787,0.45-2.762,0.45c-0.998,0-1.889-0.123-2.783-0.45
				c-0.891-0.287-1.656-0.72-2.328-1.344c-0.688-0.561-1.215-1.264-1.622-2.126c-0.382-0.855-0.596-1.787-0.596-2.935
				c0-1.11,0.214-2.078,0.596-2.925c0.407-0.861,0.927-1.626,1.57-2.164c0.724-0.609,1.489-1.021,2.38-1.374
				C90.625,36.347,91.515,36.22,92.513,36.22 M92.513,40.175c-0.448,0-0.838,0.125-1.213,0.251
				c-0.293,0.155-0.607,0.382-0.803,0.628c-0.256,0.256-0.473,0.547-0.6,0.927c-0.127,0.35-0.168,0.731-0.168,1.113
				c0,0.801,0.257,1.527,0.725,2.08c0.464,0.551,1.188,0.849,2.059,0.849c0.824,0,1.553-0.298,2.061-0.849
				c0.445-0.553,0.701-1.278,0.701-2.08c0-0.381-0.062-0.763-0.19-1.113c-0.128-0.38-0.318-0.671-0.567-0.927
				c-0.197-0.246-0.519-0.473-0.833-0.628C93.337,40.301,92.929,40.175,92.513,40.175 M106.009,38.259h0.062
				c0.508-0.735,1.084-1.264,1.719-1.581c0.633-0.326,1.34-0.458,2.105-0.458c0.891,0,1.654,0.157,2.418,0.539
				c0.703,0.427,1.277,1.021,1.723,1.912c0.383-0.794,0.955-1.423,1.719-1.811c0.766-0.482,1.529-0.64,2.355-0.64
				c0.807,0,1.467,0.127,1.973,0.383c0.512,0.257,0.961,0.538,1.279,1.035c0.32,0.495,0.572,1.003,0.703,1.642
				c0.125,0.634,0.188,1.302,0.188,2.031v8.251h-4.268v-6.179c0-0.381,0-0.67-0.062-1.144c0-0.383-0.064-0.765-0.127-1.149
				c-0.129-0.281-0.318-0.634-0.537-0.89c-0.227-0.252-0.609-0.383-1.059-0.383c-0.508,0-0.891,0.131-1.146,0.383
				c-0.314,0.227-0.508,0.512-0.635,0.855c-0.131,0.342-0.193,0.712-0.219,1.146c-0.037,0.382-0.037,0.801-0.037,1.182v6.179h-4.332
				v-6.179c0-0.381,0-0.762,0-1.182c-0.062-0.41-0.129-0.855-0.256-1.146c-0.062-0.376-0.256-0.729-0.521-0.94
				c-0.271-0.201-0.625-0.327-1.133-0.327c-0.445,0-0.828,0.126-1.084,0.327c-0.258,0.21-0.447,0.563-0.576,0.94
				c-0.127,0.292-0.189,0.737-0.189,1.146c-0.029,0.42-0.062,0.801-0.062,1.182v6.179h-4.236v-12.93h4.236V38.259z M128.795,38.132
				h0.053c0.381-0.639,0.928-1.147,1.561-1.5c0.703-0.285,1.393-0.412,2.105-0.412c0.891,0,1.715,0.157,2.471,0.539
				c0.711,0.382,1.406,0.896,1.918,1.529c0.516,0.616,0.959,1.374,1.268,2.167c0.258,0.855,0.453,1.746,0.453,2.676
				c0,0.943-0.195,1.781-0.453,2.638c-0.309,0.796-0.752,1.562-1.268,2.187c-0.506,0.589-1.145,1.105-1.908,1.479
				c-0.766,0.361-1.559,0.513-2.48,0.513c-0.703,0-1.375-0.123-2.037-0.387c-0.67-0.251-1.209-0.704-1.682-1.265v7.708h-4.279
				V36.632h4.279V38.132z M131.426,40.175c-0.439,0-0.824,0.125-1.205,0.251c-0.318,0.155-0.607,0.382-0.826,0.628
				c-0.258,0.256-0.416,0.547-0.547,0.927c-0.127,0.35-0.219,0.731-0.219,1.113c0,0.801,0.256,1.527,0.744,2.08
				c0.467,0.551,1.168,0.849,2.053,0.849c0.832,0,1.529-0.298,2.037-0.849c0.451-0.553,0.705-1.278,0.705-2.08
				c0-0.381-0.066-0.763-0.193-1.113c-0.131-0.38-0.312-0.671-0.539-0.927c-0.225-0.246-0.537-0.473-0.863-0.628
				C132.258,40.301,131.859,40.175,131.426,40.175 M153.529,49.562h-4.328v-1.468l0,0c-0.385,0.64-0.941,1.118-1.596,1.405
				c-0.703,0.327-1.4,0.45-2.102,0.45c-0.898,0-1.723-0.17-2.447-0.513c-0.744-0.374-1.377-0.89-1.949-1.527
				c-0.523-0.64-0.953-1.343-1.27-2.184c-0.27-0.845-0.449-1.724-0.449-2.63c0-0.948,0.18-1.784,0.449-2.639
				c0.316-0.793,0.705-1.558,1.27-2.197c0.506-0.636,1.145-1.134,1.908-1.5c0.74-0.382,1.531-0.539,2.424-0.539
				c0.754,0,1.4,0.127,2.104,0.395c0.637,0.274,1.209,0.703,1.658,1.264v-1.247h4.328V49.562z M146.586,40.175
				c-0.447,0-0.828,0.125-1.146,0.251c-0.326,0.155-0.635,0.382-0.893,0.628c-0.186,0.256-0.381,0.547-0.508,0.927
				c-0.133,0.35-0.199,0.731-0.199,1.113c0,0.801,0.262,1.527,0.707,2.08c0.51,0.551,1.148,0.849,2.039,0.849
				c0.893,0,1.594-0.298,2.041-0.849c0.51-0.553,0.76-1.278,0.76-2.08c0-0.381-0.068-0.763-0.186-1.113
				c-0.129-0.38-0.322-0.671-0.574-0.927c-0.238-0.246-0.512-0.473-0.84-0.628C147.414,40.301,147.031,40.175,146.586,40.175
				 M159.799,38.771h0.064c0.377-0.865,0.953-1.403,1.592-1.784c0.699-0.354,1.465-0.509,2.293-0.509h0.824v4.36
				c-0.307-0.16-0.574-0.286-0.889-0.286c-0.258-0.096-0.574-0.124-0.891-0.124c-0.639,0-1.115,0.124-1.512,0.284
				c-0.4,0.223-0.654,0.508-0.91,0.855c-0.195,0.328-0.381,0.765-0.445,1.182c-0.062,0.508-0.127,1.018-0.127,1.619v5.194h-4.303
				v-12.93h4.303V38.771z M171.303,49.562h-4.309v-9.136h-1.379v-3.794h1.379V32.78h4.309v3.852h2.424v3.794h-2.424V49.562z"/>
		</g>
		<g>
			<defs>
				<path id="SVGID_8_" d="M163.748,36.478c-0.828,0-1.594,0.155-2.293,0.509c-0.639,0.381-1.215,0.919-1.592,1.784h-0.064v-2.139
					h-4.303v12.93h4.303v-5.194c0-0.601,0.064-1.111,0.127-1.619c0.064-0.417,0.25-0.854,0.445-1.182
					c0.256-0.347,0.51-0.633,0.91-0.855c0.396-0.16,0.873-0.284,1.512-0.284c0.316,0,0.633,0.027,0.891,0.124
					c0.314,0,0.582,0.126,0.889,0.286v-4.36H163.748z M77.917,36.729c-0.825,0.336-1.543,0.794-2.166,1.432
					c-0.606,0.609-1.08,1.374-1.436,2.204c-0.348,0.855-0.514,1.836-0.514,2.856s0.166,1.91,0.514,2.717
					c0.355,0.829,0.826,1.531,1.436,2.093c0.605,0.641,1.304,1.091,2.1,1.404c0.793,0.39,1.631,0.513,2.538,0.513
					c0.52,0,1.038-0.061,1.55-0.126c0.511-0.139,0.997-0.323,1.459-0.575v-3.861c-0.274,0.259-0.607,0.51-0.996,0.637
					c-0.381,0.167-0.762,0.25-1.142,0.25c-0.895,0-1.626-0.335-2.196-0.887c-0.548-0.599-0.819-1.365-0.819-2.292
					c0-0.473,0.083-0.894,0.212-1.275c0.16-0.368,0.352-0.73,0.635-0.982c0.258-0.286,0.577-0.513,0.954-0.668
					c0.353-0.126,0.747-0.241,1.147-0.241c0.411,0,0.801,0.114,1.182,0.271c0.376,0.166,0.729,0.382,1.023,0.638v-3.853
					c-0.416-0.256-0.89-0.478-1.342-0.608c-0.481-0.126-0.986-0.157-1.484-0.157C79.634,36.22,78.752,36.377,77.917,36.729
					 M90.454,45.174c-0.467-0.553-0.724-1.278-0.724-2.08c0-0.381,0.041-0.763,0.168-1.113c0.127-0.38,0.344-0.671,0.6-0.927
					c0.195-0.246,0.51-0.473,0.803-0.628c0.375-0.125,0.765-0.251,1.213-0.251c0.416,0,0.824,0.125,1.171,0.251
					c0.314,0.155,0.636,0.382,0.833,0.628c0.249,0.256,0.439,0.547,0.567,0.927c0.128,0.35,0.19,0.731,0.19,1.113
					c0,0.801-0.256,1.527-0.701,2.08c-0.508,0.551-1.236,0.849-2.061,0.849C91.643,46.023,90.918,45.725,90.454,45.174
					 M89.73,36.632c-0.891,0.353-1.656,0.765-2.38,1.374c-0.644,0.538-1.163,1.303-1.57,2.164c-0.382,0.847-0.596,1.814-0.596,2.925
					c0,1.147,0.214,2.08,0.596,2.935c0.407,0.862,0.935,1.565,1.622,2.126c0.672,0.626,1.438,1.059,2.328,1.344
					c0.895,0.327,1.785,0.45,2.783,0.45c0.975,0,1.882-0.123,2.762-0.45c0.891-0.286,1.654-0.718,2.357-1.344
					c0.639-0.561,1.209-1.264,1.592-2.132c0.383-0.849,0.574-1.831,0.574-2.929c0-1.11-0.191-2.078-0.574-2.925
					c-0.383-0.861-0.953-1.626-1.592-2.164c-0.703-0.609-1.467-1.021-2.357-1.374c-0.88-0.285-1.787-0.412-2.762-0.412
					C91.515,36.22,90.625,36.347,89.73,36.632 M115.755,36.86c-0.764,0.388-1.336,1.017-1.719,1.811
					c-0.445-0.891-1.02-1.485-1.723-1.912c-0.764-0.382-1.527-0.539-2.418-0.539c-0.766,0-1.473,0.131-2.105,0.458
					c-0.635,0.317-1.211,0.846-1.719,1.581h-0.062v-1.626h-4.236v12.93h4.236v-6.179c0-0.381,0.033-0.762,0.062-1.182
					c0-0.41,0.062-0.855,0.189-1.146c0.129-0.376,0.318-0.729,0.576-0.94c0.256-0.201,0.639-0.327,1.084-0.327
					c0.508,0,0.861,0.126,1.133,0.327c0.266,0.21,0.459,0.563,0.521,0.94c0.127,0.292,0.193,0.737,0.256,1.146
					c0,0.42,0,0.801,0,1.182v6.179h4.332v-6.179c0-0.381,0-0.8,0.041-1.182c0.021-0.434,0.084-0.804,0.215-1.146
					c0.127-0.343,0.32-0.628,0.635-0.855c0.256-0.252,0.639-0.383,1.146-0.383c0.449,0,0.832,0.131,1.059,0.383
					c0.219,0.256,0.408,0.609,0.537,0.89c0.062,0.385,0.127,0.767,0.127,1.149c0.062,0.474,0.062,0.763,0.062,1.144v6.179h4.268
					v-8.251c0-0.729-0.062-1.397-0.188-2.031c-0.131-0.639-0.383-1.147-0.703-1.642c-0.318-0.497-0.768-0.778-1.279-1.035
					c-0.506-0.256-1.17-0.383-1.973-0.383C117.285,36.22,116.521,36.377,115.755,36.86 M129.373,45.174
					c-0.488-0.553-0.744-1.278-0.744-2.08c0-0.381,0.092-0.763,0.219-1.113c0.131-0.38,0.289-0.671,0.547-0.927
					c0.219-0.246,0.508-0.473,0.826-0.628c0.381-0.125,0.766-0.251,1.205-0.251c0.434,0,0.832,0.125,1.146,0.251
					c0.326,0.155,0.639,0.382,0.863,0.628c0.227,0.256,0.408,0.547,0.539,0.927c0.127,0.35,0.193,0.731,0.193,1.113
					c0,0.801-0.254,1.527-0.705,2.08c-0.508,0.551-1.205,0.849-2.037,0.849C130.541,46.023,129.84,45.725,129.373,45.174
					 M130.408,36.632c-0.633,0.353-1.18,0.861-1.561,1.5h-0.053v-1.5h-4.279v19.373h4.279v-7.708
					c0.473,0.561,1.012,1.014,1.682,1.265c0.662,0.264,1.334,0.387,2.037,0.387c0.922,0,1.715-0.152,2.48-0.513
					c0.764-0.374,1.402-0.89,1.908-1.479c0.516-0.625,0.959-1.391,1.27-2.187c0.256-0.857,0.451-1.695,0.451-2.638
					c0-0.931-0.195-1.821-0.451-2.676c-0.311-0.793-0.754-1.551-1.27-2.167c-0.512-0.634-1.207-1.147-1.918-1.529
					c-0.756-0.382-1.58-0.539-2.471-0.539C131.801,36.22,131.111,36.347,130.408,36.632 M144.547,45.174
					c-0.445-0.553-0.707-1.278-0.707-2.08c0-0.381,0.066-0.763,0.199-1.113c0.127-0.38,0.322-0.671,0.508-0.927
					c0.258-0.246,0.566-0.473,0.893-0.628c0.318-0.125,0.699-0.251,1.146-0.251c0.445,0,0.828,0.125,1.201,0.251
					c0.328,0.155,0.602,0.382,0.84,0.628c0.252,0.256,0.445,0.547,0.574,0.927c0.111,0.35,0.186,0.731,0.186,1.113
					c0,0.801-0.25,1.527-0.76,2.08c-0.447,0.551-1.148,0.849-2.041,0.849C145.695,46.023,145.057,45.725,144.547,45.174
					 M143.016,36.759c-0.764,0.365-1.402,0.864-1.908,1.5c-0.568,0.639-0.953,1.403-1.27,2.197c-0.27,0.855-0.449,1.69-0.449,2.639
					c0,0.906,0.18,1.786,0.449,2.63c0.316,0.841,0.746,1.543,1.27,2.184c0.572,0.637,1.205,1.153,1.949,1.527
					c0.725,0.343,1.549,0.513,2.447,0.513c0.701,0,1.398-0.123,2.102-0.45c0.654-0.286,1.211-0.765,1.596-1.405l0,0v1.468h4.328
					v-12.93h-4.328v1.249c-0.449-0.563-1.021-0.992-1.658-1.266c-0.703-0.268-1.35-0.395-2.104-0.395
					C144.547,36.22,143.756,36.377,143.016,36.759 M166.994,32.78v3.852h-1.379v3.794h1.379v9.136h4.309v-9.136h2.424v-3.794h-2.424
					V32.78H166.994z"/>
			</defs>
			<clipPath id="SVGID_9_">
				<use xlink:href="#SVGID_8_"  overflow="visible"/>
			</clipPath>
			<rect x="58.062" y="50.525" clip-path="url(#SVGID_9_)" fill="#121212" width="42.818" height="12.689"/>
		</g>
	</g>
	<g>
		<path fill="#58585A" d="M86.281,26.973L83.98,22.17h1.448l0.831,1.954c0.108,0.285,0.221,0.565,0.334,0.833
			c0.111,0.269,0.227,0.553,0.344,0.848h0.047c0.123-0.295,0.247-0.58,0.367-0.848c0.123-0.268,0.235-0.548,0.344-0.833l0.832-1.954
			h1.413l-2.304,4.803v2.841h-1.355V26.973z"/>
		<path fill="#58585A" d="M90.83,22.17h4.594v1.145h-3.238v1.951h2.744v1.145h-2.744v2.258h3.354v1.146H90.83V22.17z"/>
		<path fill="#58585A" d="M100.609,27.746H98.05l-0.596,2.068h-1.389l2.502-7.644h1.588l2.488,7.644h-1.436L100.609,27.746z
			 M100.306,26.684l-0.266-0.937c-0.117-0.406-0.234-0.821-0.352-1.252c-0.117-0.426-0.23-0.854-0.342-1.273h-0.045
			c-0.109,0.43-0.219,0.855-0.326,1.279c-0.111,0.425-0.229,0.84-0.352,1.246l-0.268,0.937H100.306z"/>
		<path fill="#58585A" d="M107.718,29.814l-1.648-2.994h-1.156v2.994h-1.357V22.17h2.572c0.395,0,0.768,0.04,1.111,0.117
			c0.34,0.079,0.637,0.205,0.893,0.38s0.449,0.408,0.594,0.696c0.146,0.29,0.221,0.647,0.221,1.074c0,0.584-0.141,1.056-0.416,1.414
			c-0.277,0.362-0.65,0.616-1.115,0.775l1.822,3.188H107.718z M104.914,25.747h1.074c0.529,0,0.932-0.11,1.203-0.326
			c0.271-0.222,0.41-0.548,0.41-0.985c0-0.443-0.139-0.75-0.41-0.922s-0.674-0.259-1.203-0.259h-1.074V25.747z"/>
		<path fill="#58585A" d="M110.781,27.908c0.27,0.258,0.584,0.466,0.934,0.628c0.352,0.157,0.705,0.239,1.064,0.239
			c0.43,0,0.758-0.089,0.988-0.269c0.227-0.183,0.342-0.421,0.342-0.717c0-0.154-0.029-0.285-0.088-0.396
			c-0.059-0.109-0.135-0.205-0.244-0.288c-0.105-0.082-0.23-0.155-0.379-0.229c-0.148-0.068-0.307-0.136-0.479-0.209l-1.043-0.453
			c-0.186-0.081-0.371-0.177-0.561-0.294c-0.186-0.117-0.354-0.258-0.498-0.424c-0.141-0.16-0.256-0.353-0.348-0.569
			c-0.09-0.216-0.135-0.469-0.135-0.746c0-0.308,0.064-0.587,0.191-0.849c0.131-0.262,0.307-0.491,0.535-0.687
			c0.223-0.192,0.492-0.344,0.805-0.454c0.314-0.11,0.652-0.166,1.029-0.166c0.449,0,0.883,0.087,1.297,0.263
			c0.412,0.175,0.766,0.411,1.062,0.707l-0.703,0.868c-0.24-0.203-0.496-0.365-0.766-0.479c-0.268-0.116-0.564-0.174-0.891-0.174
			c-0.365,0-0.656,0.077-0.873,0.24c-0.213,0.157-0.322,0.38-0.322,0.658c0,0.148,0.037,0.274,0.104,0.381
			c0.064,0.107,0.154,0.199,0.268,0.282c0.113,0.079,0.242,0.155,0.391,0.22c0.146,0.065,0.299,0.134,0.457,0.195l1.029,0.429
			c0.223,0.098,0.432,0.203,0.623,0.332c0.189,0.123,0.355,0.269,0.492,0.43c0.135,0.166,0.242,0.353,0.312,0.57
			c0.076,0.213,0.111,0.458,0.111,0.741c0,0.309-0.061,0.601-0.184,0.877c-0.125,0.271-0.309,0.51-0.547,0.717
			c-0.236,0.207-0.527,0.372-0.863,0.493c-0.34,0.12-0.725,0.18-1.15,0.18c-0.516,0-1.012-0.101-1.486-0.292
			c-0.475-0.196-0.895-0.472-1.264-0.829L110.781,27.908z"/>
	</g>
	<linearGradient id="SVGID_10_" gradientUnits="userSpaceOnUse" x1="57.5005" y1="26.1509" x2="94.813" y2="26.1509">
		<stop  offset="0" style="stop-color:#FFFFFF"/>
		<stop  offset="1" style="stop-color:#8E97B8"/>
	</linearGradient>
	
		<line fill="none" stroke="url(#SVGID_10_)" stroke-width="0.7792" stroke-miterlimit="10" x1="94.538" y1="7.808" x2="57.776" y2="44.494"/>
</g>
</svg>
