<svg width="336" height="315" viewBox="0 0 336 315" xmlns="http://www.w3.org/2000/svg"><title>icon-stage-icon-kundenportal@3x</title><defs><linearGradient x1="13.647%" y1="36.583%" y2="100%" id="a"><stop stop-color="#D1D1D1" stop-opacity="0" offset="0%"/><stop stop-color="#CAD0D2" offset="100%"/></linearGradient><filter x="-50%" y="-50%" width="200%" height="200%" filterUnits="objectBoundingBox" id="b"><feGaussianBlur stdDeviation="2.4" in="SourceGraphic" result="blur"/></filter><filter x="-50%" y="-50%" width="200%" height="200%" filterUnits="objectBoundingBox" id="c"><feGaussianBlur in="SourceGraphic" result="blur"/></filter></defs><g transform="translate(15 11.096)" fill="none" fill-rule="evenodd"><path d="M167.625 276.22l-96.8-33.797L82.36 186.99l75.388 35.99 9.88 53.24z" fill="url(#a)" filter="url(#b)"/><path d="M47.532 218.142c24.132-.89 43.423-20.764 43.423-45.15 0-24.953-20.197-45.18-45.112-45.18-24.914 0-45.11 20.227-45.11 45.18 0 18.788 11.45 34.898 27.743 41.71l5.3 16.09 13.756-12.65z" fill="#FFCF1A"/><path d="M261.405 138.33c0-58.537-47.382-105.99-105.83-105.99S49.745 79.792 49.745 138.33c0 52.85 38.623 96.667 89.142 104.682l27.822 31.407 11.794-32.592c47.425-10.492 82.9-52.846 82.9-103.497z" fill="#F92D3B"/><path d="M282.653 85.82c-9.527 11.19-23.705 18.284-39.537 18.284-28.685 0-51.94-23.29-51.94-52.02 0-28.728 23.255-52.018 51.94-52.018s51.94 23.29 51.94 52.02c0 7.38-1.536 14.403-4.303 20.763l5.28 13.17-13.38-.2z" fill="#2BC5FB"/><path d="M268.275 142.802c-1.898.42-3.87.64-5.895.64-15.084 0-27.31-12.247-27.31-27.353 0-15.108 12.226-27.354 27.31-27.354 15.083 0 27.31 12.246 27.31 27.353 0 8.924-4.268 16.852-10.872 21.844l-2 9.3-8.543-4.432z" fill="#84D500"/><path d="M50.24 128.023c-.328 3.392-.495 6.83-.495 10.308 0 26.335 9.59 50.426 25.46 68.963 9.642-8.286 15.75-20.58 15.75-34.3 0-23.468-17.864-42.757-40.716-44.97z" fill="#C41700"/><path d="M255.267 102.673c-10.45-29.306-33.42-52.654-62.456-63.587a52.19 52.19 0 0 0-1.634 13c0 28.728 23.255 52.018 51.94 52.018a52 52 0 0 0 12.15-1.43z" fill="#016099"/><path d="M261.284 143.44c.08-1.692.12-3.396.12-5.11 0-16.98-3.986-33.026-11.073-47.252-9.565 4.254-16.236 13.852-16.236 25.01 0 15.067 12.162 27.288 27.19 27.353z" fill="#BB2626" filter="url(#c)"/><path d="M255.25 102.55c-7.906 2.442-14.594.37-16.336.198 4.596-9.185 12.193-14.012 23.15-14.012a27.83 27.83 0 0 1 13.944 3.72c-9.177 7.52-15.963 8.61-20.758 10.093z" fill="#16A400"/><path d="M252.966 96.787c.823 1.933 1.59 3.896 2.3 5.886a52 52 0 0 1-12.15 1.43c-2.06 0-4.094-.12-6.092-.353a27.438 27.438 0 0 1 13.307-12.672 105.54 105.54 0 0 1 2.636 5.71z" fill="#003F5B"/><path d="M198.823 174.283c0-15.06-12.457-27.38-27.683-27.38h-31.13c-15.227 0-27.684 12.32-27.684 27.38v15.336h86.497v-15.337z" stroke="#FFF" stroke-width="3"/><ellipse stroke="#FFF" stroke-width="3" cx="154.233" cy="110.689" rx="24.915" ry="24.643"/></g></svg>