<?xml version="1.0" encoding="UTF-8" standalone="no"?>
<svg width="75px" height="40px" viewBox="0 0 75 40" version="1.1" xmlns="http://www.w3.org/2000/svg" xmlns:xlink="http://www.w3.org/1999/xlink" xmlns:sketch="http://www.bohemiancoding.com/sketch/ns">
    <!-- Generator: Sketch 3.3.2 (12043) - http://www.bohemiancoding.com/sketch -->
    <title>icon-sprache</title>
    <desc>Created with Sketch.</desc>
    <defs/>
    <g id="icons" stroke="none" stroke-width="1" fill="none" fill-rule="evenodd" sketch:type="MSPage">
        <g id="icon-sprache" sketch:type="MSArtboardGroup" fill="#D6D8DA">
            <g id="Group-Copy-141" sketch:type="MSLayerGroup" transform="translate(4.000000, 1.000000)">
                <path d="M22.5478439,24.0479902 L21.5529566,23.0537045 L20.5596249,23.0537045 L18.5714058,21.0659111 L17.5780742,21.0659111 L16.5831868,20.0716253 L14.5957456,20.0716253 L14.0986909,20.5679902 L13.1045813,20.5679902 L10.6193075,18.0830539 L9.62597586,18.0830539 L8.63108847,17.0887682 L8.63108847,16.0944824 L9.62597586,15.1009747 L12.6075266,15.1009747 L16.5831868,11.1238318 L17.5780742,11.1238318 L19.5655154,9.1352604 L20.5596249,9.1352604 L21.5529566,8.14097467 L20.5596249,7.14668895 L19.5655154,7.14668895 L19.5655154,6.15318123 L18.5714058,6.15318123 L16.0869099,8.63811754 L14.0986909,6.64954609 L15.0920225,5.65526037 L16.0869099,5.65526037 L16.5831868,5.15811751 L17.5780742,5.15811751 L18.5714058,4.16460979 L20.5596249,6.15318123 L21.5529566,5.15811751 L21.5529566,4.16460979 L20.5596249,3.17032407 L22.5478439,1.18175262 L19.5655154,1.18175262 L17.5780742,3.17032407 L16.5831868,3.17032407 L15.5890773,4.16460979 L14.5957456,3.17032407 L11.613417,3.17032407 L10.6193075,4.16460979 L7.63775681,4.16460979 L7.14070205,3.66746693 L4.15837348,3.66746693 L3.66131872,4.16460979 L2.66798706,4.16460979 L0.181935385,6.64954609 L0.679768011,7.14668895 L1.67387753,7.14668895 L2.66798706,6.15318123 L4.65542824,6.15318123 L5.64953777,7.14668895 L5.64953777,9.1352604 L4.65542824,10.1295461 L4.65542824,11.1238318 L3.66131872,12.1181176 L3.66131872,13.1116253 L5.64953777,15.1009747 L5.64953777,16.0944824 L8.63108847,19.0773396 L9.62597586,19.0773396 L11.613417,21.0659111 L12.6075266,21.0659111 L13.1045813,21.5630539 L13.1045813,22.5557836 L12.6075266,23.0537045 L12.6075266,25.0422759 L13.1045813,25.5386408 L13.1045813,26.5329265 L15.5890773,29.0186408 L15.5890773,33.9900694 L16.5831868,34.9843552 L16.5831868,36.9721486 L17.5780742,37.9672123 L18.5714058,37.9672123 L18.5714058,36.9721486 L18.0743511,36.4757837 L18.0743511,35.479942 L19.5655154,33.9900694 L19.5655154,32.9950057 L21.5529566,31.0072123 L21.5537344,30.0137046 L23.5411756,28.0243551 L23.5419535,27.0308474 L24.5352851,26.0365617 L24.5352851,25.0422759 L23.5411756,24.0479902 L22.5478439,24.0479902 Z M52.8593142,19.1136986 L54.8467554,21.1014921 L54.8467554,20.1072064 L53.356369,18.6157778 L53.8542016,18.1194129 L54.8467554,19.1136986 L55.8416428,18.1194129 L55.8416428,17.1251272 L54.8467554,16.1308415 L55.8416428,15.1365558 L56.8357523,15.1365558 L57.8290839,14.14227 L57.8290839,12.1536986 L56.8357523,11.1594129 L56.8357523,10.1659051 L57.3320292,9.66798428 L57.8290839,10.1659051 L58.8239713,10.1659051 L59.8180809,9.17161942 L59.8180809,7.18304798 L57.8290839,5.19447654 L59.8180809,5.19447654 L60.8114125,4.20096882 L63.2959085,6.68590512 L63.2959085,4.69733368 L64.7870727,3.20590509 L63.7937411,2.21239737 L56.8357523,2.21239737 L56.3386975,1.71525451 L52.3638152,1.71525451 L51.8652047,1.21811165 L48.8844318,1.21811165 L47.8895444,0.223825929 L43.9123285,0.223825929 L42.9197747,1.21811165 L41.9248873,1.21811165 L40.9315556,2.21239737 L36.9551175,2.21239737 L36.4588406,2.70954023 L35.9625637,2.21239737 L31.9853478,2.21239737 L29.500074,4.69733368 L29.9979066,5.19447654 L29.9971287,6.18876226 L28.9975742,7.18304798 L28.0034646,7.18304798 L27.5064099,7.68019084 L28.0034646,8.1773337 L28.0034646,9.17161942 L26.0152456,9.17161942 L25.5181908,9.66798428 L25.5181908,10.66227 L26.0206906,11.1594129 L27.015578,11.1594129 L29.0030192,9.17161942 L29.9979066,9.17161942 L30.4941835,8.67447656 L31.4875152,9.66798428 L31.9853478,9.17161942 L32.9794573,10.1659051 L33.972789,10.1659051 L34.9668985,11.1594129 L36.9551175,11.1594129 L36.9551175,12.1536986 L36.4580628,12.6508414 L34.4706216,12.6508414 L33.972789,12.1536986 L32.9786794,12.1536986 L32.4824025,12.6508414 L31.9853478,12.1536986 L30.9912383,12.1536986 L29.9979066,11.1594129 L28.0089097,11.1594129 L27.5126328,11.6573337 L26.5177454,11.6573337 L24.0332495,14.14227 L24.0332495,18.1194129 L26.0214685,20.1072064 L28.0089097,20.1072064 L28.5067423,19.6108415 L29.500074,19.6108415 L29.9979066,20.1072064 L29.9979066,22.0957778 L31.4875152,23.5864284 L31.4875152,24.5807141 L30.9912383,25.078635 L30.9912383,27.0664284 L31.4875152,27.5635713 L31.4875152,28.557857 L31.9853478,29.0549999 L31.9853478,30.0492856 L32.9794573,31.0427933 L33.972789,31.0427933 L35.9625637,29.0549999 L35.9625637,28.0614921 L38.4462818,25.5757778 L38.4462818,24.5807141 L37.9492271,24.0843493 L37.9492271,22.0957778 L40.9315556,19.1136986 L40.9315556,18.1194129 L38.9441144,18.1194129 L37.9492271,17.1251272 L37.9492271,16.1308415 L36.4588406,14.6394129 L36.4580628,13.6451272 L36.9551175,13.1487623 L36.9551175,14.14227 L38.9441144,16.1308415 L38.9441144,17.1251272 L39.4403913,17.6222701 L39.9374461,17.1251272 L40.9315556,17.1251272 L42.9197747,15.1365558 L41.9248873,14.14227 L40.9315556,14.14227 L39.9374461,13.1487623 L40.4345009,12.6508414 L41.4278325,13.6451272 L42.4227199,13.6451272 L42.9197747,14.14227 L44.9072159,14.14227 L46.399158,15.6329206 L46.399158,16.6279843 L47.3924897,17.6222701 L47.3924897,18.6157778 L47.8895444,19.1136986 L48.3858213,18.6157778 L48.3858213,16.6279843 L49.8769856,15.1365558 L50.871873,15.1365558 L52.8593142,17.1251272 L52.8593142,19.1136986 Z" id="Shape" sketch:type="MSShapeGroup"/>
            </g>
        </g>
    </g>
</svg>