<?xml version="1.0" encoding="UTF-8" standalone="no"?>
<svg width="1280px" height="712px" viewBox="0 0 1280 712" version="1.1" xmlns="http://www.w3.org/2000/svg" xmlns:xlink="http://www.w3.org/1999/xlink" xmlns:sketch="http://www.bohemiancoding.com/sketch/ns">
    <!-- Generator: Sketch 3.3.3 (12072) - http://www.bohemiancoding.com/sketch -->
    <title>2560 copy 2</title>
    <desc>Created with Sketch.</desc>
    <defs>
        <rect id="path-1" x="0" y="0" width="1276" height="711"></rect>
        <linearGradient x1="46.3719979%" y1="83.7173343%" x2="9.54759775%" y2="83.7173343%" id="linearGradient-3">
            <stop stop-color="#FFFFFF" stop-opacity="0" offset="0%"></stop>
            <stop stop-color="#E6E6E6" stop-opacity="0.924856139" offset="46.0020977%"></stop>
            <stop stop-color="#F1F0F0" offset="100%"></stop>
        </linearGradient>
    </defs>
    <g id="stage-welle" stroke="none" stroke-width="1" fill="none" fill-rule="evenodd" sketch:type="MSPage">
        <g id="2560-copy-2" sketch:type="MSArtboardGroup">
            <g id="welle-l" sketch:type="MSLayerGroup" transform="translate(-2.000000, 0.000000)">
                <mask id="mask-2" sketch:name="Mask" fill="white">
                    <use xlink:href="#path-1"></use>
                </mask>
                <use id="Mask" sketch:type="MSShapeGroup" xlink:href="#path-1"></use>
                <g id="wave-+-Imported-Layers" mask="url(#mask-2)" fill="url(#linearGradient-3)" sketch:type="MSShapeGroup">
                    <g transform="translate(-249.223611, -548.382353)" id="Imported-Layers">
                        <path d="M2949.87283,125.065352 L2947.7176,123.955248 L2947.70988,123.983685 C2607.78456,435.376679 2325.16135,648.868606 2084.27419,789.294831 C2088.17362,786.581488 2092.06489,783.843208 2095.95316,781.092085 C2332.99797,639.396361 2608.43111,426.01201 2936.69356,116.795162 L2936.70655,116.790681 L2934.55383,115.721344 C2617.37277,414.493157 2349.61114,623.658528 2118.19152,765.082778 C2121.42968,762.716542 2124.66494,760.349324 2127.8935,757.960624 C2355.83941,615.310192 2617.03859,405.948619 2923.58454,108.532457 L2921.39709,107.463206 L2921.36906,107.484774 C2625.45771,394.584275 2371.88482,599.51051 2149.72966,741.527038 C2152.35155,739.526082 2154.96759,737.517232 2157.58426,735.49825 C2376.64974,592.236052 2624.25358,386.781998 2910.41118,100.276089 L2910.42633,100.270862 L2908.23081,99.1885344 L2908.18418,99.2363428 C2632.27752,375.486592 2392.28431,576.276769 2179.18762,718.566077 C2181.15763,716.998198 2183.12612,715.420933 2185.09171,713.842687 C2395.56743,570.207452 2630.2299,368.476923 2897.27293,91.9798497 L2895.06335,90.9459907 L2895.01309,90.99109 C2637.98418,357.119915 2411.01157,553.883658 2206.75994,696.190269 C2208.25378,694.955198 2209.74472,693.719145 2211.23201,692.480384 C2413.23359,548.713747 2635.32877,350.710508 2884.11255,83.7190021 L2881.89216,82.6888767 L2881.84563,82.7485462 C2642.82475,339.266171 2428.48645,532.011853 2232.96506,674.101791 C2233.87161,673.323112 2234.78618,672.55158 2235.69416,671.770427 C2429.47248,528.023738 2639.52865,333.589313 2871.0205,75.4088095 L2868.75067,74.4373724 L2868.67153,74.490451 C2646.99076,321.728429 2445.00648,510.421906 2258.17007,652.072882 C2258.35968,651.906351 2258.55072,651.737346 2258.73959,651.569088 C2444.4868,507.978274 2642.91538,316.99451 2857.8915,67.0935194 L2855.56432,66.1854854 L2855.49699,66.2662112 C2654.27615,300.168357 2467.58316,482.366793 2292.22731,622.362493 C2466.6179,480.281098 2649.93034,295.626868 2844.69964,58.8752532 L2842.39243,57.932574 L2842.32953,58.0236675 C2661.48504,277.853548 2490.52844,452.709479 2327.43559,590.22483 C2489.50458,450.538924 2657.08191,273.206933 2831.55068,50.5946084 L2829.2235,49.6865744 L2829.15061,49.7949905 C2667.88525,255.563979 2512.51699,422.59121 2361.94676,556.920062 C2511.45407,420.335004 2663.46795,250.77951 2818.48159,42.2626128 L2816.04822,41.4606066 L2815.97725,41.5386232 C2672.80656,234.131609 2532.20552,393.425096 2393.78349,524.179179 C2531.06832,391.111251 2668.31118,229.269 2805.30823,34.0062455 L2802.8786,33.2188096 L2802.80054,33.3151301 C2676.12422,213.869099 2549.24639,365.775169 2422.31996,492.781151 C2548.05508,363.392762 2671.57528,208.915933 2792.16143,25.7248539 L2789.68453,24.9953597 L2789.62236,25.0881811 C2678.40806,194.046547 2564.69527,338.525814 2449.05516,461.41577 C2563.47793,336.059206 2673.85153,188.965149 2779.08127,17.3669392 L2776.49267,16.7770936 L2776.45416,16.8439095 C2679.44486,175.036879 2578.06165,312.371646 2473.16568,431.027322 C2576.79684,309.852026 2674.83997,169.882951 2765.91863,9.0949772 L2763.30741,8.56844844 L2763.29261,8.61518935 C2679.58643,156.344011 2590.03092,286.475475 2495.67675,400.580084 C2588.72936,283.88725 2674.96117,151.090052 2752.82992,0.751910397 L2750.09701,0.382352941 C2644.9992,203.291263 2524.67929,374.20962 2392.91299,516.646413 C2381.54273,528.624506 2370.10989,540.386284 2358.62327,551.946552 C2345.05047,565.28528 2331.42525,578.326863 2317.75147,591.097733 C2303.86581,603.796972 2289.95309,616.200239 2276.01849,628.325559 C2259.60505,642.339045 2243.19418,655.969006 2226.78362,669.20433 C2209.34268,683.033058 2191.93148,696.437175 2174.55792,709.411966 C2153.69656,724.749907 2132.92483,739.47207 2112.23864,753.609601 C2088.1666,769.843148 2064.26362,785.268962 2040.51552,799.923648 C2010.60858,818.17034 1981.02275,835.192042 1951.74319,851.029565 C1906.87044,875.068197 1862.86002,896.329127 1819.63534,914.999361 C1768.13971,937.066443 1717.95936,955.410483 1668.93165,970.394893 C1617.23959,986.024956 1567.03,997.852486 1518.11289,1006.25826 C1481.09544,1012.42602 1444.93496,1016.5594 1409.50904,1018.90087 C1380.70348,1020.57994 1352.46414,1021.01488 1324.73038,1020.30789 C1299.59598,1019.40194 1274.94169,1017.50956 1250.70618,1014.73717 C1034.07001,986.962133 856.079574,884.45564 672.070185,778.484529 C473.66871,664.217578 268.273254,545.999646 0.197222222,512.647418 L1.27171968,515.16331 C267.919355,548.752609 472.440082,666.451557 669.996638,780.216995 C816.021718,864.32888 958.2821,946.248358 1118.96071,990.556131 C953.712505,948.939149 805.001498,870.068014 651.924146,788.869068 C459.414714,686.758462 259.965932,581.086435 12.2491576,540.866526 L13.3288209,543.394513 C259.690437,583.784591 458.246934,689.001185 649.891628,790.662715 C818.893971,880.304677 982.580178,967.121776 1168.93901,1004.3339 C976.591767,969.897641 804.698201,885.777411 626.766731,798.694742 C442.387002,708.462107 251.531815,615.114665 24.8383417,570.343579 L25.9379304,572.918221 C251.331332,617.784958 441.303139,710.703634 624.814738,800.514136 C819.554183,895.81646 1007.08088,987.568422 1221.93803,1014.83512 C999.391908,990.56622 801.559877,901.017672 595.66195,807.8166 C422.036216,729.216703 242.663468,648.091279 37.9898658,601.137329 L39.1270915,603.800096 C242.583106,650.763744 421.011136,731.479582 593.794222,809.67631 C817.611258,910.989253 1031.91991,1007.98161 1278.61531,1021.87258 C1022.20047,1011.37662 795.009593,915.926388 557.387135,816.069644 C397.550964,748.895767 232.961502,679.755578 51.631408,633.078435 L52.7892971,635.789584 C232.962055,682.414004 396.6068,751.144607 555.56668,817.958644 C812.628849,925.98748 1057.50322,1028.88742 1340.17524,1025.0684 C1045.35377,1032.9186 784.426633,930.596782 510.419549,823.13864 C367.932138,767.24726 221.886101,710.012283 65.7312351,666.092597 L66.9053598,668.841761 C221.970224,712.627998 367.062645,769.513953 508.654138,825.034422 C804.050479,940.886164 1084.2763,1050.78242 1407.93883,1023.63177 C1069.14786,1055.81564 768.818062,945.08198 452.711197,828.536679 C331.854007,783.981153 208.695467,738.578072 80.1993138,699.969004 L81.3941019,702.766551 C208.827942,741.179087 331.029964,786.232165 450.997487,830.472117 C785.6401,953.857849 1102.64618,1070.73526 1466.09183,1019.05971 C1467.01348,1018.96179 1467.9316,1018.87302 1468.85252,1018.77337 C1085.21111,1077.92037 742.14795,957.778898 381.549658,831.488642 C287.556334,798.586597 192.383706,765.25479 94.9788197,734.574605 L96.1950091,737.422262 C192.586375,767.857361 286.816208,800.836412 379.885137,833.422969 C759.358764,966.32547 1119.45123,1092.4314 1527.61351,1010.68858 C1529.79042,1010.3261 1531.95876,1009.97846 1534.14132,1009.60014 C1099.19597,1102.64743 704.972068,969.651621 293.056723,830.675945 C232.458817,810.254782 171.496601,789.701579 109.978981,769.696862 L111.215834,772.592902 C171.773594,792.28049 231.759323,812.518334 291.386647,832.637962 C724.527348,978.751331 1138.12295,1118.27735 1599.84795,996.236341 C1603.27719,995.433847 1606.72354,994.601656 1610.17127,993.761061 C1113.48681,1132.63771 654.623499,980.607193 181.506357,823.831486 C162.747928,817.615071 143.960527,811.394775 125.131166,805.175077 L126.363591,808.060749 C144.236093,813.97616 162.070914,819.884745 179.88173,825.777822 C676.800343,990.432084 1158.01557,1149.86586 1683.67784,973.542764 C1688.07852,972.19495 1692.49485,970.813984 1696.9276,969.407525 C1292.86574,1111.58565 903.055509,1062.35294 516.498577,956.827016 C390.862546,922.54839 265.633437,882.344249 140.35346,840.817446 L141.590313,843.713486 C265.975457,884.912619 390.351103,924.804556 515.001749,958.828388 C924.977881,1070.7331 1338.58307,1119.46236 1768.86382,944.483183 C1774.33521,942.432887 1779.82657,940.347946 1785.3493,938.208563 C1363.60868,1117.48552 944.270429,1088.46236 533.137537,986.942918 C406.445642,955.657462 280.542698,917.497869 155.563945,876.432168 L156.794894,879.314385 C280.890275,920.038548 405.921703,957.890183 531.729792,988.955188 C963.437791,1095.56069 1404.17996,1122.37163 1847.2154,912.817254 C1852.70865,910.440222 1858.22187,908.028545 1863.76145,905.568122 C1430.50172,1118.53404 984.223575,1111.89648 551.033342,1016.46658 C422.888973,988.245708 295.894489,952.274778 170.711703,911.900015 L171.93232,914.75804 C296.279447,954.7867 422.40832,990.463495 549.70317,1018.49769 C999.848249,1117.65364 1464.0728,1121.14657 1913.18251,882.777465 C1918.78754,880.098184 1924.42322,877.362734 1930.07818,874.59684 C1491.7531,1115.72804 1022.41395,1132.61601 570.565144,1045.402 C440.452111,1020.29296 311.800606,986.54719 185.721458,947.044736 L186.938385,949.894121 C312.218028,989.047911 440.038649,1022.49946 569.310332,1047.44676 C1035.30631,1137.38287 1519.84288,1116.87326 1969.89205,854.609331 C1975.50331,851.723697 1981.1374,848.798468 1986.79352,845.825987 C1789.16783,964.976093 1581.26449,1038.74053 1369.68397,1076.69576 C1112.03569,1122.9024 848.863583,1116.07407 592.05956,1073.69994 C459.308545,1051.781 328.269365,1020.35783 200.57919,981.833499 L201.76955,984.620678 C328.729087,1022.81224 458.957947,1053.9777 590.874253,1075.75046 C848.103184,1118.23572 1111.69621,1125.04372 1369.83047,1078.72492 C1592.1587,1038.86369 1810.39505,959.547657 2016.95715,829.721115 C2023.17853,826.339494 2029.43989,822.894513 2035.72048,819.413159 C2003.21819,840.583456 1970.32523,860.548325 1937.0706,879.311647 C1731.62405,995.214379 1512.57815,1065.89612 1289.27271,1099.99812 C1065.92615,1134.11431 838.2924,1131.63255 615.80724,1101.25021 C479.642438,1082.67007 345.429639,1053.63053 215.232501,1016.14362 L216.406626,1018.89279 C345.884095,1056.06098 479.361984,1084.8624 614.7091,1103.34202 C837.586697,1133.75947 1065.59808,1136.23584 1289.33047,1102.0579 C1513.13671,1067.88422 1732.65609,997.066881 1938.56544,880.875608 C1979.95513,857.519261 2020.78524,832.311956 2060.99546,805.222953 C2307.48581,664.921429 2598.03147,447.367802 2949.84253,125.075806 L2949.87283,125.065352 L2949.87283,125.065352 Z M1876.4179,1042.70153 C1871.34486,1043.92785 1866.29152,1045.13597 1861.24684,1046.34094 C1864.69918,1045.37827 1868.15521,1044.42475 1871.60387,1043.45293 C1876.50992,1042.25569 1881.43573,1041.04313 1886.36753,1039.82489 C1883.05305,1040.78477 1879.73868,1041.75044 1876.4179,1042.70153 L1876.4179,1042.70153 L1876.4179,1042.70153 Z M1823.09629,1052.09023 C1824.25397,1051.5833 1825.40574,1051.08668 1826.56599,1050.57908 C1826.01359,1050.84773 1825.46545,1051.11353 1824.91305,1051.38218 C1823.90869,1051.81627 1822.91364,1052.23567 1821.90583,1052.6689 C1822.30151,1052.47747 1822.69972,1052.28012 1823.09629,1052.09023 L1823.09629,1052.09023 L1823.09629,1052.09023 Z M1869.97418,1040.87276 C1872.60295,1040.22405 1875.224,1039.58221 1877.86308,1038.92627 C1876.18711,1039.40277 1874.51565,1039.88635 1872.83701,1040.36032 C1870.07875,1041.03381 1867.33851,1041.69321 1864.58796,1042.35984 C1866.38305,1041.8629 1868.18004,1041.37342 1869.97418,1040.87276 L1869.97418,1040.87276 L1869.97418,1040.87276 Z M1907.71683,1029.23162 C1908.40475,1029.01646 1909.09799,1028.80363 1909.78328,1028.58886 C1911.50815,1028.10829 1913.23385,1027.62551 1914.95866,1027.14181 C1914.23935,1027.3711 1913.51736,1027.59766 1912.79715,1027.82605 C1911.1063,1028.29209 1909.40511,1028.76911 1907.71683,1029.23162 L1907.71683,1029.23162 L1907.71683,1029.23162 Z M1721.23391,1072.75829 C1721.14291,1072.80758 1721.051,1072.86241 1720.96099,1072.91398 C1720.40238,1073.19583 1719.85046,1073.47018 1719.29284,1073.7543 C1719.94145,1073.42088 1720.58719,1073.08845 1721.23391,1072.75829 L1721.23391,1072.75829 L1721.23391,1072.75829 Z M1774.55191,1063.54092 C1777.17288,1063.02401 1779.80227,1062.50188 1782.43079,1061.97902 C1780.88005,1062.32557 1779.32663,1062.66744 1777.77583,1063.0115 C1775.0469,1063.5459 1772.29941,1064.08927 1769.57889,1064.61846 C1771.23596,1064.25796 1772.89489,1063.90392 1774.55191,1063.54092 L1774.55191,1063.54092 L1774.55191,1063.54092 Z M1825.52508,1053.51234 C1829.50293,1052.62604 1833.50704,1051.71529 1837.49928,1050.81523 C1834.83997,1051.50276 1832.17973,1052.18677 1829.51943,1052.86806 C1825.56208,1053.74344 1821.59451,1054.62564 1817.65243,1055.48806 C1820.27784,1054.83145 1822.90325,1054.17485 1825.52508,1053.51234 L1825.52508,1053.51234 L1825.52508,1053.51234 Z M1915.84964,1030.02261 C1911.92643,1031.05892 1907.98852,1032.11062 1904.08181,1033.13331 C1906.69688,1032.33334 1909.30745,1031.52894 1911.91803,1030.72453 C1915.8296,1029.67972 1919.76283,1028.61441 1923.69353,1027.55559 C1921.07894,1028.37997 1918.46789,1029.20485 1915.84964,1030.02261 L1915.84964,1030.02261 L1915.84964,1030.02261 Z M1952.81027,1017.26044 C1950.05385,1018.04424 1947.30264,1018.82091 1944.55142,1019.59758 C1946.12251,1019.08039 1947.68549,1018.55807 1949.25477,1018.03903 C1952.17027,1017.19962 1955.09454,1016.35359 1958.01699,1015.50572 C1956.28265,1016.09291 1954.54825,1016.67694 1952.81027,1017.26044 L1952.81027,1017.26044 L1952.81027,1017.26044 Z M1987.57345,1004.47576 C1985.82071,1005.00913 1984.08022,1005.52642 1982.3265,1006.05558 C1983.20835,1005.74653 1984.09386,1005.44129 1984.97479,1005.13128 C1986.79873,1004.5695 1988.61913,1004.01045 1990.443,1003.4454 C1989.49008,1003.78939 1988.53448,1004.1338 1987.57345,1004.47576 L1987.57345,1004.47576 L1987.57345,1004.47576 Z M2020.69752,991.753386 C2020.0796,992.18845 2019.45788,992.630025 2018.83897,993.062817 C2019.52382,992.576238 2020.21338,992.077623 2020.90012,991.587789 C2020.83032,991.640285 2020.76248,991.697326 2020.69752,991.753386 L2020.69752,991.753386 L2020.69752,991.753386 Z M1651.48296,1085.04013 C1653.05979,1084.81439 1654.63584,1084.59 1656.21262,1084.36238 C1659.82667,1083.88264 1663.46774,1083.39087 1667.10227,1082.90225 C1665.325,1083.16604 1663.54102,1083.42733 1661.75873,1083.68972 C1658.32559,1084.1446 1654.90306,1084.59342 1651.48296,1085.04013 L1651.48296,1085.04013 L1651.48296,1085.04013 Z M1712.75167,1076.91702 C1715.53411,1076.39836 1718.31545,1075.86996 1721.09525,1075.34704 C1725.59491,1074.58374 1730.13281,1073.79864 1734.65821,1073.01951 C1731.92075,1073.54826 1729.18603,1074.0858 1726.44759,1074.60934 C1721.87647,1075.38226 1717.29452,1076.16021 1712.75167,1076.91702 L1712.75167,1076.91702 L1712.75167,1076.91702 Z M1767.58268,1068.08128 C1771.21123,1067.28099 1774.83426,1066.46367 1778.45491,1065.65423 C1783.72503,1064.6136 1788.98841,1063.57718 1794.29047,1062.51401 C1790.46642,1063.39428 1786.62995,1064.25416 1782.79626,1065.12382 C1777.70881,1066.12066 1772.64157,1067.10486 1767.58268,1068.08128 L1767.58268,1068.08128 L1767.58268,1068.08128 Z M1815.6186,1059.27062 C1819.89999,1058.1926 1824.17075,1057.10232 1828.44144,1056.00932 C1834.42238,1054.68828 1840.39814,1053.36794 1846.4199,1052.01687 C1842.20748,1053.12766 1837.98707,1054.22856 1833.76314,1055.32629 C1827.69168,1056.65662 1821.64665,1057.97067 1815.6186,1059.27062 L1815.6186,1059.27062 L1815.6186,1059.27062 Z"></path>
                    </g>
                </g>
            </g>
        </g>
    </g>
</svg>